<svg xmlns="http://www.w3.org/2000/svg" viewBox="0 0 400 181.62">
  <defs>
    <style>
      .cls-1 {
        fill: #ed2c4f;
        fill-rule: evenodd;
      }
    </style>
  </defs>
  <g id="Layer_2" data-name="Layer 2">
    <g id="Layer_1-2" data-name="Layer 1">
      <path class="cls-1" d="M96.68,0c47.69,0,78.44,34.19,111,81s58.23,78.71,97.11,78.71c26.79.06,51.5-13.74,64.55-36.06h25.59c-14.77,35.11-50.48,58.07-90.14,58-47.69,0-77.19-32.71-111.08-81.07s-58.16-78.64-97-78.64c-40.21-.27-73.06,30.56-73.43,68.9.37,38.35,33.21,69.18,73.42,68.92,31.79,0,54.5-21.84,75.87-49.6l13.73,19.31C163,158.32,136,181.61,96.68,181.61,43.71,181.94.47,141.32,0,90.8.47,40.29,43.72-.33,96.68,0ZM231.24,71.5,217.72,52.32C240.54,23.37,266.94,0,305.46,0a95.26,95.26,0,0,1,70.71,30.32,88.79,88.79,0,0,1,23.14,71.39H287.69V79.83h88.68c-5.8-33.5-35.8-58-70.91-57.95C274.36,21.88,252.14,43.76,231.24,71.5Z"/>
    </g>
  </g>
</svg>
